<svg xmlns="http://www.w3.org/2000/svg" xmlns:xlink="http://www.w3.org/1999/xlink"><symbol id="arrow-language" viewBox="0 0 8 5">
<defs>
<filter id="Filter_0">
    <feFlood flood-color="rgb(209, 209, 209)" flood-opacity="1" result="floodOut"/>
    <feComposite operator="atop" in="floodOut" in2="SourceGraphic" result="compOut"/>
    <feBlend mode="normal" in="compOut" in2="SourceGraphic"/>
</filter>

</defs>
<g filter="url(#Filter_0)">
<path fill-rule="evenodd" d="M0.155,0.956 L3.663,4.815 C3.858,5.030 4.176,5.030 4.371,4.815 L4.383,4.794 L7.882,0.956 C8.078,0.741 8.078,0.390 7.882,0.174 L7.876,0.170 C7.786,0.068 7.659,0.002 7.518,0.002 L0.519,0.002 C0.376,0.002 0.247,0.070 0.156,0.176 L0.155,0.174 C-0.040,0.391 -0.040,0.741 0.155,0.956 Z"/>
</g>
</symbol><symbol id="basket" viewBox="0 0 463.52 425.2"><defs><style>.cls-1{fill:#010101}</style></defs><path class="cls-1" d="M369.8 132.39a14.52 14.52 0 0 0-10.66-4.54h-.35a15.6 15.6 0 0 0-15.24 15.59v224.14a27.34 27.34 0 0 1-27.31 27.31H146.85a27.34 27.34 0 0 1-27.31-27.3V143.44A15.61 15.61 0 0 0 104 127.85a15.25 15.25 0 0 0-15.6 15.59v224.15A57.68 57.68 0 0 0 146 425.2h169.8a57.68 57.68 0 0 0 57.61-57.61V143.01a13.92 13.92 0 0 0-3.61-10.62Z"/><path class="cls-1" d="M188.86 169.86a15.25 15.25 0 0 0-15.59 15.59v147.72a15.61 15.61 0 0 0 15.59 15.6c8.75 0 15.6-6.66 15.6-15.15V185.45a15.61 15.61 0 0 0-15.6-15.59ZM273.78 169.86a15.25 15.25 0 0 0-15.59 15.59v147.72a15.61 15.61 0 0 0 15.59 15.6c8.75 0 15.6-6.66 15.6-15.15V185.45a15.61 15.61 0 0 0-15.6-15.59ZM299.25 0H163.83a15.62 15.62 0 0 0-15.6 15.59v52.79h-86.3A15.62 15.62 0 0 0 46.33 84a15.25 15.25 0 0 0 15.6 15.59H401.6A15.62 15.62 0 0 0 417.19 84a15.6 15.6 0 0 0-15.59-15.6h-86.75V15.59A15.62 15.62 0 0 0 299.25 0Zm-15.14 68.38H179V31.19h105.11Z"/></symbol><symbol id="blue-line" viewBox="0 0 30 2">
<path fill-rule="evenodd" fill="rgb(0, 109, 243)" d="M-0.000,-0.002 L29.1000,-0.002 L29.1000,1.998 L-0.000,1.998 L-0.000,-0.002 Z"/>
</symbol><symbol id="cart" viewBox="0 0 463.52 425.2"><path d="M345.21 53.17h-28.37C316.84 23.81 278.76 0 231.76 0s-85.09 23.81-85.09 53.17h-28.36C87 53.17 61.59 77 61.59 106.3v265.76c0 29.33 25.39 53.14 56.72 53.14h226.9c31.33 0 56.73-23.81 56.73-53.14V106.3c0-29.3-25.4-53.13-56.73-53.13ZM231.76 26.59c31.34 0 56.72 8.21 56.72 26.58H175c0-18.37 25.43-26.58 56.76-26.58Zm141.81 345.47c0 14.66-12.7 26.55-28.37 26.55H118.31c-15.67 0-28.37-11.89-28.37-26.55v-26.58h283.63v26.58Zm0-53.17H89.94V106.3c0-14.68 12.7-26.58 28.37-26.58h28.36v79.75H175V79.72h113.49v79.75h28.36V79.72h28.36c15.67 0 28.37 11.9 28.37 26.58v212.59Z" style="fill:#010101;fill-rule:evenodd"/></symbol><symbol id="certified-product" viewBox="0 0 463.52 425.2"><defs><style>.cls-1{fill:#010101}</style></defs><path class="cls-1" d="M411.81 166.29a13.88 13.88 0 0 0-9.88-4.15 13.7 13.7 0 0 0-9.92 4.05l-42.57 42.57-13.18 13.17-8.26-8.28-15.91-16.06-2.88-2.84a13.35 13.35 0 0 0-2.47-1.94 13.93 13.93 0 0 0-17.31 21.58L306.82 232l19.4 19.75a14.36 14.36 0 0 0 9.78 4.5h.37a14.2 14.2 0 0 0 9.7-4.37l3.37-3.38 62.26-62.39a14 14 0 0 0 .11-19.82Z"/><path class="cls-1" d="M463.52 202a112.81 112.81 0 0 0-113.7-111.91h-.38V28a28 28 0 0 0-27.95-28h-8.11a28 28 0 0 0-28 28v29.65H64V28A28 28 0 0 0 36 0h-8A28 28 0 0 0 0 28v292a28 28 0 0 0 28 28h8.1A28 28 0 0 0 64 320v-29.6h211.34l-3.74 117.09a17.14 17.14 0 0 0 28.29 13.58l50.82-43.49 50.8 43.49a17.15 17.15 0 0 0 28.3-13.58L426 286.93c1.76-1.57 3.47-3.18 5.13-4.88A112 112 0 0 0 463.52 202ZM42.63 320a6.58 6.58 0 0 1-6.57 6.56H28a6.56 6.56 0 0 1-6.59-6.56V28A6.55 6.55 0 0 1 28 21.41h8.1A6.56 6.56 0 0 1 42.63 28ZM306.82 28a6.56 6.56 0 0 1 6.56-6.55h8.11A6.56 6.56 0 0 1 328 28v64.4a111.16 111.16 0 0 0-21.22 6.54ZM64 79.34h221.4v31.07H64Zm0 52.76h198.86A111.85 111.85 0 0 0 245 163.18H64Zm0 52.77h175.3a111 111 0 0 0-1.43 18.92 109 109 0 0 0 .75 12.15H64Zm0 83.85v-31.09h179.31A111.45 111.45 0 0 0 259 268.72Zm295.4 81c-.06-.07-.15-.11-.21-.18l-.63-.48-.47-.32-.62-.39-.55-.31a4.53 4.53 0 0 0-.59-.28 4.46 4.46 0 0 0-.63-.28c-.17-.08-.35-.13-.53-.2l-.71-.24-.46-.04a6.34 6.34 0 0 0-.78-.18c-.16 0-.32 0-.49-.08l-.77-.11h-1.83c-.25 0-.47 0-.7.06a4 4 0 0 0-.62.08 3.57 3.57 0 0 0-.64.11l-.63.13-.63.17-.6.19-.65.24-.53.24-.67.33-.49.26-.68.43-.42.3c-.22.16-.44.33-.65.51l-.22.16-42.89 36.71 1.33-41.71 1.28-40.19c1.69.82 3.39 1.58 5.12 2.31a110.54 110.54 0 0 0 21.16 6.49 111.79 111.79 0 0 0 21.4 2.26h2.14a112.27 112.27 0 0 0 48.16-11.11l2.62 81.87Zm52.6-86.47a85.41 85.41 0 0 1-60.61 25.67h-1.94a85.49 85.49 0 0 1-42.62-12 86.7 86.7 0 0 1-16.46-12.72c-1.73-1.7-3.39-3.47-4.94-5.31a85.12 85.12 0 0 1-19.75-42.95 87.45 87.45 0 0 1-1-12.37 86 86 0 0 1 1.89-18.7 85.48 85.48 0 0 1 18.84-38c1.27-1.48 2.6-2.94 4-4.35a87 87 0 0 1 17.41-13.67 84.85 84.85 0 0 1 21.22-9 86.07 86.07 0 0 1 21.4-3h1.28A86 86 0 0 1 412 263.25Z"/></symbol><symbol id="clients" viewBox="0 0 485.44 482.08"><path data-name="icon Clients" d="M220 330.36c62.76 0 113.78-62.1 113.78-138.42S282.72 53.51 220 53.51c-31 0-60 14.85-81.58 41.79-20.77 26-32.21 60.29-32.19 96.64-.04 76.33 50.99 138.42 113.77 138.42Zm0-246.51c46 0 83.44 48.48 83.44 108.09S266 300 220 300s-83.43-48.48-83.46-108.09S173.93 83.85 220 83.85Zm95.56 231.34a15.17 15.17 0 0 0 0 30.34 94.19 94.19 0 0 1 94.07 94.09 12.15 12.15 0 0 1-12.15 12.1h-355a12.11 12.11 0 0 1-12.12-12.1 94.17 94.17 0 0 1 94-94.09 15.17 15.17 0 1 0 0-30.34C55.8 315.19 0 371 0 439.62a42.5 42.5 0 0 0 42.46 42.44h355a42.52 42.52 0 0 0 42.49-42.44 124.57 124.57 0 0 0-124.43-124.43ZM231.05 36.66A66.74 66.74 0 0 1 265.47 27c46 0 83.44 48.49 83.44 108.07a137.24 137.24 0 0 1-3.53 31.21 15.15 15.15 0 0 0 11.27 18.22 14.58 14.58 0 0 0 3.48.4 15.19 15.19 0 0 0 14.76-11.7 168.76 168.76 0 0 0 4.34-38.14c0-76.32-51-138.42-113.78-138.42a98 98 0 0 0-49.85 13.91 15.17 15.17 0 0 0 15.43 26.12Zm133 217.86a15.17 15.17 0 1 0 0 30.34c51.86 0 91 43.22 91 95.07a11.7 11.7 0 0 1-1 4.95 15.17 15.17 0 0 0 27.73 12.33 42.48 42.48 0 0 0 3.65-17.31c0-68.54-52.77-125.38-121.36-125.38Z" style="fill-rule:evenodd"/></symbol><symbol id="delivery" viewBox="0 0 650.05 425.2"><path d="M643.84 239.14c0-5.31 6.11 5.58-93-150.79C543.41 76.8 550 80 431.35 80a.07.07 0 0 1-.07-.07V13.29A13.19 13.19 0 0 0 417.86 0H19.49A13.36 13.36 0 0 0 6.14 13.36v345.27a12.81 12.81 0 0 0 .41 3.44A13.33 13.33 0 0 0 19.42 372h67.7a.07.07 0 0 1 .07.06 66.43 66.43 0 0 0 130.18 0 .06.06 0 0 1 .06-.06h241.69a.07.07 0 0 1 .07.06 66.43 66.43 0 0 0 130.17 0 .07.07 0 0 1 .07-.06h41a13.22 13.22 0 0 0 13.45-13.29Zm-37.6-13.29H489.57a5.14 5.14 0 0 1-5.15-5.15v-56.12a5.15 5.15 0 0 1 5.15-5.16h74.52a.07.07 0 0 1 .06 0l42.15 66.28a.07.07 0 0 1-.06.15ZM32.79 26.58h371.84a.07.07 0 0 1 .07.07v212.42a.07.07 0 0 1-.07.07H32.79a.07.07 0 0 1-.07-.07V26.65a.07.07 0 0 1 .07-.07Zm0 239.13h371.84a.07.07 0 0 1 .07.07v79.57a.07.07 0 0 1-.07.07H217.44a.08.08 0 0 1-.07-.05 66.43 66.43 0 0 0-130.18 0s0 .05-.07.05H32.79a.08.08 0 0 1-.08-.07v-79.57a.07.07 0 0 1 .08-.07Zm119.5 132.86a39.88 39.88 0 1 1 28.18-11.68 39.83 39.83 0 0 1-28.18 11.68Zm372 0a39.88 39.88 0 1 1 28.18-11.68 39.83 39.83 0 0 1-28.2 11.68Zm65.16-53.15s-.07 0-.07-.05a66.42 66.42 0 0 0-130.17 0 .08.08 0 0 1-.07.05h-27.8a.07.07 0 0 1-.07-.07v-239a.07.07 0 0 1 .07-.07h98.87a.09.09 0 0 1 .06 0l16.78 26.43a.07.07 0 0 1-.06.11H471.2a13.36 13.36 0 0 0-13.36 13.36V239a13 13 0 0 0 .41 3.46 13.32 13.32 0 0 0 12.88 10H617.2a.07.07 0 0 1 .07.07v39.72a.08.08 0 0 1-.07.07h-12.69c-7.12 0-13.36 5.36-13.78 12.47A13.27 13.27 0 0 0 604 318.86h13.2a.07.07 0 0 1 .07.07v26.43a.07.07 0 0 1-.07.07Z" style="fill:#010101"/></symbol><symbol id="diamond" viewBox="0 0 550.24 618.14"><path d="M547.19 297a15.29 15.29 0 0 0-.42-18.89L455.69 134a15.32 15.32 0 0 0-13.93-9H108.57a15.24 15.24 0 0 0-10 3.71 15.55 15.55 0 0 0-3.21 3.62L2.43 279.18a15.38 15.38 0 0 0-2.12 5.41c0 .25-.08.5-.11.75a15 15 0 0 0-.2 2.33 15.28 15.28 0 0 0 3.44 9.68l.05.06L265.17 613.5a12.8 12.8 0 0 0 19.72 0L546.34 298q.38-.42.72-.87ZM433.12 155.74l73.81 116.74H387.49l-27.57-116.76Zm69.14 147.41-191 230.59 77.19-230.62ZM221.91 155.68H328.4L356 272.44H194.29Zm134.16 147.43-81 242.07-80.9-242.11ZM238.84 533.57 48.05 303h113.78ZM116.91 155.65h73.49l-27.64 116.74L43 272.36Z"/><rect x="230.06" y="29.79" width="90.25" height="30.67" rx="15.34" transform="rotate(90.02 275.18 45.114)"/><rect x="109.58" y="37.12" width="90.25" height="30.67" rx="15.34" transform="rotate(45.02 154.692 52.44)"/><rect x="350.53" y="37.18" width="90.25" height="30.67" rx="15.34" transform="rotate(135.02 395.654 52.498)"/></symbol><symbol id="exit" viewBox="0 0 463.52 425.2"><defs><style>.cls-1{fill:#010101}</style></defs><path class="cls-1" d="M309.37 220.1a15 15 0 0 0-13-22.5H93.47L134 157.39a15.09 15.09 0 0 0-21.36-21.33l-65.88 65.87a15 15 0 0 0 0 21.13l65.65 65.88a15 15 0 0 0 21.11-21.14l-39.86-40.2h202.72a15 15 0 0 0 12.99-7.5Z"/><path class="cls-1" d="M406.1 425.2a15 15 0 0 0 15-15V15a15.07 15.07 0 0 0-4.4-10.6A14.88 14.88 0 0 0 406.1 0H142.64a15 15 0 0 0-15 15v65.87a15 15 0 0 0 30 0V30H391.1v365.19H157.64v-50.86a15 15 0 1 0-30 0v65.86A14.91 14.91 0 0 0 132 420.8a15.14 15.14 0 0 0 10.61 4.4Z"/></symbol><symbol id="guarantee" viewBox="0 0 463.52 425.2"><defs><style>.cls-1{fill:#010101}</style></defs><path class="cls-1" d="M419.45 51.62a13.57 13.57 0 0 0-10.78-1.93c-47.83 11.65-90.21 7.84-126-11.31C256 24.05 243 6 242.85 5.78a13.54 13.54 0 0 0-18.8-3.37l-.53.41-.07.05c-.32.25-.62.51-.91.78a1.85 1.85 0 0 0-.14.14c-.27.25-.53.52-.78.8l-.19.22c-.22.26-.42.51-.61.78l-.15.19c-.12.18-13.11 18.27-39.85 32.6-35.75 19.15-78.13 23-126 11.31A13.53 13.53 0 0 0 38.26 60.9c-.33 2.26-7.81 56.22 11.38 128a383.56 383.56 0 0 0 53.94 117.56c30.52 44.69 71 83.81 120.4 116.27l.08.05.28.19.31.17c.39.24.78.46 1.19.66l.62.28c.35.15.7.28 1 .4s.48.16.72.22a10.22 10.22 0 0 0 1.07.23c.23.05.46.1.7.13a14.18 14.18 0 0 0 1.59.12h.34a14.18 14.18 0 0 0 1.6-.12c.23 0 .47-.08.7-.13a8.89 8.89 0 0 0 1.05-.23 6.34 6.34 0 0 0 .74-.23c.35-.11.69-.24 1-.38l.64-.29c.4-.2.79-.42 1.17-.65.11-.07.22-.11.33-.18l.28-.19.06-.05c49.38-32.46 89.89-71.57 120.42-116.27A383.54 383.54 0 0 0 413.8 188.9c19.2-71.79 11.71-125.75 11.39-128a13.59 13.59 0 0 0-5.74-9.28Zm-31.72 130.3c-23.21 86.84-75.67 158.61-156 213.45-79.91-54.58-132.27-126-155.66-212.29-12.36-45.61-13-84-12.17-103.79 60.67 11.07 104.42-3.18 131.1-17.83a162.06 162.06 0 0 0 36.72-27.4 162.29 162.29 0 0 0 36.72 27.4C295.21 76.11 339 90.37 399.62 79.28c.85 19.6.23 57.33-11.89 102.64Z"/><path class="cls-1" d="M209.54 160a14.06 14.06 0 0 0 3.63 13.54l44.11 44.11a13.95 13.95 0 0 0 18.25 1.26l88.25-66.19a13.94 13.94 0 1 0-16.73-22.29l-78.65 58.93-35.4-35.67a14 14 0 0 0-23.46 6.31Z"/></symbol><symbol id="like-active" viewBox="0 0 463.52 425.2"><path d="M311.53 0c-4.1 0-8.19.25-12.25.62-1.49.14-3 .35-4.44.55-2.49.3-5 .68-7.43 1.13-1.82.34-3.59.7-5.33 1.1C280 3.86 278 4.41 276 5s-3.83 1-5.72 1.65c-1.71.56-3.37 1.24-5.06 1.88a133 133 0 0 0-13 5.62c-.83.41-1.7.79-2.52 1.23-2.21 1.17-4.34 2.46-6.49 3.74-1.17.72-2.37 1.4-3.53 2.15-2.09 1.33-4.08 2.76-6.07 4.19-.61.44-1.24.84-1.86 1.28A132.61 132.61 0 0 0 152 0C78.68 0 19 59.59 19 132.88c0 120.26 77.38 229.05 207 291a13.23 13.23 0 0 0 11.49 0c129.59-62 207-170.75 207-291C444.49 59.59 384.84 0 311.53 0Zm-.11 79.73a13.29 13.29 0 0 1 .11-26.58 79.84 79.84 0 0 1 79.78 79.73 13.3 13.3 0 0 1-26.59 0 53.21 53.21 0 0 0-53.19-53.15Z" style="fill:#010101;fill-rule:evenodd"/></symbol><symbol id="like-inactive" viewBox="0 0 463.52 425.2"><path d="M311.53 0c-4.1 0-8.19.25-12.25.62-1.5.13-3 .35-4.45.55-2.49.3-4.95.67-7.42 1.12q-2.73.51-5.34 1.1C280 3.86 278 4.41 276 5s-3.85 1-5.73 1.62c-1.71.56-3.37 1.24-5.06 1.87a135.77 135.77 0 0 0-13 5.63c-.82.41-1.7.78-2.51 1.22-2.21 1.18-4.34 2.47-6.5 3.75-1.17.72-2.36 1.39-3.53 2.15-2.08 1.33-4.07 2.76-6.07 4.19-.6.44-1.24.84-1.85 1.28A132.55 132.55 0 0 0 152 0C78.68 0 19 59.59 19 132.87c0 120.26 77.38 229.06 207 291a13.16 13.16 0 0 0 11.49 0c129.59-61.95 207-170.75 207-291C444.48 59.59 384.84 0 311.53 0Zm-79.77 397.15C115.1 339.27 45.63 240.89 45.63 132.87a106.09 106.09 0 0 1 166.21-87.62 132.14 132.14 0 0 0-33.26 87.62 13.3 13.3 0 0 0 26.59 0 105.91 105.91 0 0 1 36-79.49c2-1.83 4.16-3.54 6.32-5.19.49-.34 1-.73 1.46-1.1 2.12-1.53 4.29-3 6.51-4.37.61-.39 1.22-.78 1.84-1.14q3.22-1.9 6.56-3.6l2.34-1.13c2.13-1 4.28-2 6.47-2.83 1-.38 1.95-.73 2.95-1.08 2.07-.75 4.15-1.45 6.25-2.06 1.28-.37 2.53-.68 3.82-1 1.9-.48 3.79-1 5.74-1.35 1.75-.32 3.53-.56 5.29-.82 1.51-.22 3-.47 4.55-.63 3.37-.32 6.8-.52 10.25-.52a106.45 106.45 0 0 1 106.36 106.3c.01 108.03-69.45 206.41-186.12 264.29Zm79.77-344a13.29 13.29 0 0 0-.11 26.58h.11a53.21 53.21 0 0 1 53.18 53.14 13.3 13.3 0 0 0 26.59 0 79.82 79.82 0 0 0-79.77-79.72Z" style="fill-rule:evenodd"/></symbol><symbol id="lock-closed" viewBox="0 0 463.52 425.2"><defs><style>.cls-1{fill:#010101}</style></defs><path class="cls-1" d="M356.91 162.6h-22.67V85.87a85.55 85.55 0 0 0-85.46-85h-34.44a85.52 85.52 0 0 0-85 84.83V162.6h-22.72a40.2 40.2 0 0 0-40.15 40.16V384.2c0 19 17.17 40.16 40.15 40.16h250.29a40.2 40.2 0 0 0 40.15-40.16V202.76c0-18.96-17.17-40.16-40.15-40.16ZM158.65 86.35a56.35 56.35 0 0 1 56.11-56.15h34a56.37 56.37 0 0 1 56.16 56.15v76.25H158.65Zm209 297.85a10.8 10.8 0 0 1-10.74 10.8H106.62c-5.69 0-10.79-7.32-10.79-10.79V202.76A10.8 10.8 0 0 1 106.62 192h250.29c5.68 0 10.78 7.32 10.78 10.79Z"/><path class="cls-1" d="M245.85 243.11a27 27 0 0 0-29.71 45.08v43.94a15.62 15.62 0 0 0 31.16 0v-43.94a26.94 26.94 0 0 0 11.48-22 27 27 0 0 0-12.93-23.08Z"/></symbol><symbol id="lock-open" viewBox="0 0 463.52 425.2"><defs><style>.cls-1{fill:#010101}</style></defs><path class="cls-1" d="M414 162.4H215V85.79A85.9 85.9 0 0 0 129.16 0H95A86.06 86.06 0 0 0 9.2 85.76a14.74 14.74 0 0 0 14.69 14.79h.05a14.75 14.75 0 0 0 14.74-14.7A56.58 56.58 0 0 1 95 29.48h34.13a56.44 56.44 0 0 1 56.35 56.33v76.59h-22.75a40.37 40.37 0 0 0-40.31 40.32v182.16c0 19 17.24 40.32 40.31 40.32H414a40.36 40.36 0 0 0 40.31-40.32V202.72c.01-19.03-17.23-40.32-40.31-40.32Zm10.83 222.48A10.85 10.85 0 0 1 414 395.72H162.73c-5.7 0-10.83-7.36-10.83-10.84V202.72a10.84 10.84 0 0 1 10.83-10.83H414c5.71 0 10.83 7.35 10.83 10.83Z"/><path class="cls-1" d="M302.52 243.23a27.12 27.12 0 0 0-29.83 45.26v44.11a15.68 15.68 0 0 0 31.28 0v-44.11a27 27 0 0 0 11.52-22.05 27.11 27.11 0 0 0-12.97-23.21Z"/></symbol><symbol id="mobile-icon-burger" viewBox="0 0 607.12 425.2"><defs><style>.cls-1{fill:#1d1d1b}</style></defs><rect class="cls-1" y=".03" width="607.12" height="61.08" rx="30.54" ry="30.54"/><rect class="cls-1" y="182.06" width="607.12" height="61.08" rx="30.54" ry="30.54"/><rect class="cls-1" y="364.09" width="607.12" height="61.08" rx="30.54" ry="30.54"/></symbol><symbol id="mobile-icon-cross" viewBox="0 0 17 16">
<path fill-rule="evenodd" fill="rgb(17, 17, 17)" d="M8.729,7.967 L15.879,15.117 C16.077,15.315 16.077,15.634 15.879,15.831 C15.682,16.029 15.363,16.029 15.166,15.831 L8.015,8.681 L0.865,15.831 C0.668,16.029 0.347,16.029 0.151,15.831 C-0.047,15.634 -0.047,15.315 0.151,15.117 L7.301,7.967 L0.170,0.836 C-0.027,0.638 -0.027,0.319 0.170,0.122 C0.367,-0.075 0.687,-0.075 0.884,0.122 L8.015,7.253 L15.146,0.122 C15.344,-0.075 15.663,-0.075 15.860,0.122 C16.057,0.319 16.057,0.638 15.860,0.836 L8.729,7.967 Z"/>
</symbol><symbol id="mobile-icon-filter" viewBox="0 0 463.52 425.2"><defs><style>.cls-1{fill:#1d1d1b}</style></defs><path class="cls-1" d="M388.49 198h-17.86a64.47 64.47 0 0 0-125.7 0H75a14.37 14.37 0 0 0 0 28.73h169.93a64.48 64.48 0 0 0 125.7 0h17.86a14.37 14.37 0 0 0 0-28.73Zm-80.7 49.38a35 35 0 0 1-31.92-20.65 34.83 34.83 0 0 1 0-28.73 35 35 0 1 1 31.92 49.38ZM388.49 50.14H203.65a64.47 64.47 0 0 0-125.7 0H75a14.36 14.36 0 1 0 0 28.71h3a64.47 64.47 0 0 0 125.7 0h184.79a14.36 14.36 0 1 0 0-28.71ZM140.81 99.51a35.08 35.08 0 0 1-35-35 34.54 34.54 0 0 1 3.1-14.35 35 35 0 0 1 63.82 0 34.79 34.79 0 0 1 0 28.71 35 35 0 0 1-31.92 20.64ZM388.49 346.34H256.8a64.48 64.48 0 0 0-125.7 0H75a14.37 14.37 0 0 0 0 28.73h56.1a64.47 64.47 0 0 0 125.7 0h131.69a14.37 14.37 0 0 0 0-28.73ZM194 395.72a35 35 0 1 1 35-35 34.68 34.68 0 0 1-3.09 14.36A35 35 0 0 1 194 395.72Z"/></symbol><symbol id="mobile-icon-sorting" viewBox="0 0 463.52 425.2"><defs><style>.cls-1{fill:#1d1d1b}</style></defs><rect class="cls-1" x="4.47" y=".06" width="319.1" height="30" rx="14.67" ry="14.67" transform="rotate(180 164.015 15.06)"/><rect class="cls-1" x="4.47" y="131.75" width="276.83" height="30" rx="15" ry="15" transform="rotate(180 142.88 146.75)"/><rect class="cls-1" x="4.47" y="263.45" width="234.03" height="30" rx="15" ry="15" transform="rotate(-180 121.48 278.445)"/><rect class="cls-1" x="4.47" y="395.14" width="170.41" height="30" rx="15" ry="15" transform="rotate(180 89.67 410.14)"/><path class="cls-1" d="M454.67 346.85a15 15 0 0 0-21.21 0l-27.08 27.08V15.06a15 15 0 0 0-30 0v359l-27.21-27.21a15 15 0 0 0-21.21 0 15 15 0 0 0 0 21.21l52.68 52.68a14.92 14.92 0 0 0 10.67 4.39h.1c.48 0 1 0 1.45-.08l.66-.09c.27 0 .53-.07.79-.12s.5-.12.74-.19.46-.1.68-.17.48-.16.72-.25.45-.15.67-.25.43-.19.65-.3.45-.2.68-.32l.6-.36.66-.4c.22-.15.43-.31.64-.48s.36-.25.53-.39c.39-.32.76-.65 1.11-1l52.68-52.68a15 15 0 0 0 0-21.2Z"/></symbol><symbol id="office" viewBox="0 0 463.52 425.2"><path d="M231.76 274.68c63.22 0 114.63-61.61 114.63-137.34S295 0 231.76 0c-31.27 0-60.46 14.73-82.19 41.46-20.93 25.76-32.45 59.82-32.44 95.88 0 75.74 51.42 137.34 114.63 137.34Zm0-244.59c46.34 0 84.06 48.11 84.06 107.25s-37.72 107.24-84.06 107.24-84.06-48.09-84.09-107.24 37.72-107.25 84.09-107.25ZM328 259.63a15.06 15.06 0 1 0 0 30.11c52.25 0 94.78 41.87 94.78 93.35a12.17 12.17 0 0 1-12.24 12H52.93a12.13 12.13 0 0 1-12.21-12c0-51.48 42.5-93.35 94.74-93.35a15.06 15.06 0 1 0 0-30.11c-69.1 0-125.31 55.38-125.31 123.46 0 23.22 19.19 42.11 42.78 42.11h357.64c23.6 0 42.8-18.89 42.8-42.11 0-68.09-56.24-123.46-125.37-123.46Z" style="fill-rule:evenodd"/></symbol><symbol id="profile" viewBox="0 0 463.52 425.2"><path d="M433.42 60.52h-25v26.17a11 11 0 1 1-21.89 0V60.52h-25a11.2 11.2 0 0 1-10.94-11.45 11.21 11.21 0 0 1 10.94-11.45h25V11.46a11 11 0 1 1 21.89 0v26.16h25a11.2 11.2 0 0 1 10.94 11.45 11.2 11.2 0 0 1-10.94 11.45ZM231.76 274.68c60.65 0 110-61.62 110-137.33S292.41 0 231.76 0c-30 0-58 14.73-78.85 41.46-20.08 25.76-31.13 59.82-31.12 95.89 0 75.73 49.32 137.33 110 137.33Zm0-244.59c44.46 0 80.64 48.11 80.64 107.26s-36.18 107.23-80.64 107.23-80.64-48.09-80.67-107.23 36.18-107.26 80.67-107.26Zm92.36 229.55a15.05 15.05 0 0 0 0 30.1c50.12 0 90.92 41.87 90.92 93.35a11.91 11.91 0 0 1-11.74 12H60.2a11.88 11.88 0 0 1-11.72-12c0-51.48 40.78-93.35 90.9-93.35a15.06 15.06 0 0 0 0-30.1c-66.29 0-120.22 55.36-120.22 123.45 0 23.22 18.41 42.11 41 42.11H403.3c22.63 0 41.06-18.89 41.06-42.11 0-68.09-53.95-123.45-120.24-123.45Z" style="fill-rule:evenodd"/></symbol><symbol id="reviewed-goods" viewBox="0 0 463.52 425.2"><defs><style>.cls-1{fill:#010101}</style></defs><path class="cls-1" d="M373.74 243.69a15 15 0 0 0 15-15V53.85A53.91 53.91 0 0 0 334.92 0H96.24A53.9 53.9 0 0 0 42.4 53.85v317.5a53.91 53.91 0 0 0 53.83 53.85h153.28a15 15 0 0 0 0-30.05H96.24a23.83 23.83 0 0 1-23.8-23.81V53.84A23.83 23.83 0 0 1 96.24 30h238.68a23.83 23.83 0 0 1 23.81 23.8v174.86a15 15 0 0 0 15.01 15.03Z"/><path class="cls-1" d="M277.27 101.13H153.8a15 15 0 0 0 0 30.05h123.47a15 15 0 0 0 0-30.05ZM277.31 190.34H153.84a15 15 0 0 0 0 30.05h123.47a15 15 0 0 0 0-30.06ZM210.68 279.63H153.8a15 15 0 1 0 0 30h56.88a15 15 0 0 0 0-30ZM366.82 391.54l2.88-1.54.17.18 25.72 25.71a15 15 0 0 0 21.15-21.26L391 368.87l1.64-2.9a63.83 63.83 0 0 0 8.36-31.9 65.21 65.21 0 1 0-65.32 65.2h.32a64.74 64.74 0 0 0 30.82-7.73Zm-66-57.38A35.16 35.16 0 1 1 336 369.32a35.34 35.34 0 0 1-35.17-35.16Z"/></symbol><symbol id="search" viewBox="0 0 463.52 425.2"><path d="M440.46 402.06 330.62 294c28.75-31.23 46.43-72.54 46.43-118C377 78.8 296.9 0 198 0S19 78.8 19 176s80.17 176.09 179 176.09a180.18 180.18 0 0 0 112.7-39.32L421 421.23a13.93 13.93 0 0 0 19.47 0 13.41 13.41 0 0 0 .21-19ZM198 325c-83.65 0-151.46-66.67-151.46-149S114.35 27 198 27s151.45 66.7 151.45 149S281.69 325 198 325Z" style="fill:#010101;fill-rule:evenodd"/></symbol><symbol id="size" viewBox="0 0 542.18 638.44"><path d="M17.59 484A17.61 17.61 0 0 0 0 501.57v119.28a17.61 17.61 0 0 0 17.59 17.59h507a17.61 17.61 0 0 0 17.59-17.59V501.57A17.61 17.61 0 0 0 524.59 484h-507ZM513 513.18v96.06h-26.4v-40.15a10.9 10.9 0 1 0-21.79 0v40.15h-36.48v-20a10.9 10.9 0 1 0-21.8 0v20h-36.47v-40.15a10.9 10.9 0 1 0-21.8 0v40.15h-36.47v-20a10.9 10.9 0 0 0-21.8 0v20h-36.47v-40.15a10.9 10.9 0 0 0-21.8 0v40.15h-36.47v-20a10.9 10.9 0 0 0-21.8 0v20H137v-40.15a10.9 10.9 0 0 0-21.8 0v40.15H78.7v-20a10.9 10.9 0 1 0-21.79 0v20h-27.7v-96.06H513ZM423.35 8.23l-265 265-46.65 146.44a8.61 8.61 0 0 0 10.81 10.81l146.42-46.63 265-265A28.18 28.18 0 0 0 534 79L463.2 8.2a28.18 28.18 0 0 0-39.85.03Zm-29 73.08 66.54 66.54-208.63 208.61-49.54 15.78-32.78-32.78 15.7-49.31.07-.23Zm48.92-48.92 66.54 66.54-28.28 28.28L415 60.66Z"/><rect x="314.73" y="120.62" width="25.31" height="233.32" rx="11.54" transform="rotate(-135 327.386 237.28)"/></symbol><symbol id="starinactive" viewBox="0 0 463.52 425.2"><path d="M123.58 425.2a45.81 45.81 0 0 1-45-53.45L93.67 283a15.89 15.89 0 0 0-4.59-14.06l-64.57-62.82a45.72 45.72 0 0 1 25.25-78l89.1-13.06a15.9 15.9 0 0 0 12-8.71l39.76-80.8A45.44 45.44 0 0 1 231.55 0h.06a45.41 45.41 0 0 1 41 25.44l39.95 80.7a15.93 15.93 0 0 0 12 8.69l89.14 12.84a45.73 45.73 0 0 1 25.44 78l-64.42 62.93a15.93 15.93 0 0 0-4.55 14.09l15.33 88.74a45.72 45.72 0 0 1-66.28 48.28l-79.76-41.82a15.93 15.93 0 0 0-14.8 0l-79.66 42a45.75 45.75 0 0 1-21.38 5.33Zm108-395.37a15.6 15.6 0 0 0-14.25 8.89l-39.76 80.8a45.74 45.74 0 0 1-34.4 25l-89.1 13.05a15.89 15.89 0 0 0-8.78 27.13l64.56 62.79A45.7 45.7 0 0 1 123.06 288l-15.12 88.77A15.9 15.9 0 0 0 131 393.5l79.66-42a45.67 45.67 0 0 1 42.55-.06L333 393.25a15.9 15.9 0 0 0 23.06-16.79l-15.34-88.73a45.77 45.77 0 0 1 13.11-40.49l64.41-62.94a15.9 15.9 0 0 0-8.85-27.11l-89.13-12.85a45.72 45.72 0 0 1-34.46-25l-40-80.71a15.58 15.58 0 0 0-14.24-8.83Z" style="fill:#010101"/></symbol><symbol id="star-active" viewBox="0 0 463.52 425.2"><path d="M123.58 425.2a45.81 45.81 0 0 1-45-53.45L93.67 283a15.89 15.89 0 0 0-4.59-14.06l-64.57-62.82a45.72 45.72 0 0 1 25.25-78l89.1-13.06a15.9 15.9 0 0 0 12-8.71l39.76-80.8A45.44 45.44 0 0 1 231.55 0h.06a45.41 45.41 0 0 1 41 25.44l39.95 80.7a15.93 15.93 0 0 0 12 8.69l89.14 12.84a45.73 45.73 0 0 1 25.44 78l-64.42 62.93a15.93 15.93 0 0 0-4.55 14.09l15.33 88.74a45.72 45.72 0 0 1-66.28 48.28l-79.76-41.82a15.93 15.93 0 0 0-14.8 0l-79.66 42a45.75 45.75 0 0 1-21.38 5.33Z" style="fill:#010101"/></symbol><symbol id="towel-rail" viewBox="0 0 498.45 496.35"><path d="M458.56 0H447a39.93 39.93 0 0 0-39.89 39.89v42.35H91.32V39.88A39.92 39.92 0 0 0 51.43 0H39.89A39.93 39.93 0 0 0 0 39.88v416.61a39.91 39.91 0 0 0 39.89 39.85h11.54a39.9 39.9 0 0 0 39.89-39.85v-42.25h315.81v42.24A39.91 39.91 0 0 0 447 496.35h11.54a39.93 39.93 0 0 0 39.89-39.87V39.89A39.94 39.94 0 0 0 458.56 0ZM60.8 456.49a9.38 9.38 0 0 1-9.37 9.35H39.89a9.37 9.37 0 0 1-9.35-9.35V39.88a9.35 9.35 0 0 1 9.35-9.35h11.54a9.37 9.37 0 0 1 9.37 9.35Zm346.33-73.18H91.32V339h315.81Zm0-75.28H91.32v-44.32h315.81Zm0-75.26H91.32v-44.34h315.81Zm0-75.27H91.32v-44.32h315.81Zm60.78 299a9.36 9.36 0 0 1-9.35 9.35H447a9.38 9.38 0 0 1-9.37-9.35V39.89a9.36 9.36 0 0 1 9.37-9.35h11.54a9.34 9.34 0 0 1 9.35 9.35Z"/></symbol></svg>