<svg id="Слой_1" data-name="Слой 1" xmlns="http://www.w3.org/2000/svg" viewBox="0 0 463.52 425.2"><defs><style>.cls-1{fill:#010101}</style></defs><path class="cls-1" d="M369.8 132.39a14.52 14.52 0 0 0-10.66-4.54h-.35a15.6 15.6 0 0 0-15.24 15.59v224.14a27.34 27.34 0 0 1-27.31 27.31H146.85a27.34 27.34 0 0 1-27.31-27.3V143.44A15.61 15.61 0 0 0 104 127.85a15.25 15.25 0 0 0-15.6 15.59v224.15A57.68 57.68 0 0 0 146 425.2h169.8a57.68 57.68 0 0 0 57.61-57.61V143.01a13.92 13.92 0 0 0-3.61-10.62Z"/><path class="cls-1" d="M188.86 169.86a15.25 15.25 0 0 0-15.59 15.59v147.72a15.61 15.61 0 0 0 15.59 15.6c8.75 0 15.6-6.66 15.6-15.15V185.45a15.61 15.61 0 0 0-15.6-15.59ZM273.78 169.86a15.25 15.25 0 0 0-15.59 15.59v147.72a15.61 15.61 0 0 0 15.59 15.6c8.75 0 15.6-6.66 15.6-15.15V185.45a15.61 15.61 0 0 0-15.6-15.59ZM299.25 0H163.83a15.62 15.62 0 0 0-15.6 15.59v52.79h-86.3A15.62 15.62 0 0 0 46.33 84a15.25 15.25 0 0 0 15.6 15.59H401.6A15.62 15.62 0 0 0 417.19 84a15.6 15.6 0 0 0-15.59-15.6h-86.75V15.59A15.62 15.62 0 0 0 299.25 0Zm-15.14 68.38H179V31.19h105.11Z"/></svg>