<svg data-name="Слой 1" xmlns="http://www.w3.org/2000/svg" viewBox="0 0 463.52 425.2"><path d="M345.21 53.17h-28.37C316.84 23.81 278.76 0 231.76 0s-85.09 23.81-85.09 53.17h-28.36C87 53.17 61.59 77 61.59 106.3v265.76c0 29.33 25.39 53.14 56.72 53.14h226.9c31.33 0 56.73-23.81 56.73-53.14V106.3c0-29.3-25.4-53.13-56.73-53.13ZM231.76 26.59c31.34 0 56.72 8.21 56.72 26.58H175c0-18.37 25.43-26.58 56.76-26.58Zm141.81 345.47c0 14.66-12.7 26.55-28.37 26.55H118.31c-15.67 0-28.37-11.89-28.37-26.55v-26.58h283.63v26.58Zm0-53.17H89.94V106.3c0-14.68 12.7-26.58 28.37-26.58h28.36v79.75H175V79.72h113.49v79.75h28.36V79.72h28.36c15.67 0 28.37 11.9 28.37 26.58v212.59Z" style="fill:#010101;fill-rule:evenodd"/></svg>