<svg id="Слой_1" data-name="Слой 1" xmlns="http://www.w3.org/2000/svg" viewBox="0 0 463.52 425.2"><defs><style>.cls-1{fill:#010101}</style></defs><path class="cls-1" d="M411.81 166.29a13.88 13.88 0 0 0-9.88-4.15 13.7 13.7 0 0 0-9.92 4.05l-42.57 42.57-13.18 13.17-8.26-8.28-15.91-16.06-2.88-2.84a13.35 13.35 0 0 0-2.47-1.94 13.93 13.93 0 0 0-17.31 21.58L306.82 232l19.4 19.75a14.36 14.36 0 0 0 9.78 4.5h.37a14.2 14.2 0 0 0 9.7-4.37l3.37-3.38 62.26-62.39a14 14 0 0 0 .11-19.82Z"/><path class="cls-1" d="M463.52 202a112.81 112.81 0 0 0-113.7-111.91h-.38V28a28 28 0 0 0-27.95-28h-8.11a28 28 0 0 0-28 28v29.65H64V28A28 28 0 0 0 36 0h-8A28 28 0 0 0 0 28v292a28 28 0 0 0 28 28h8.1A28 28 0 0 0 64 320v-29.6h211.34l-3.74 117.09a17.14 17.14 0 0 0 28.29 13.58l50.82-43.49 50.8 43.49a17.15 17.15 0 0 0 28.3-13.58L426 286.93c1.76-1.57 3.47-3.18 5.13-4.88A112 112 0 0 0 463.52 202ZM42.63 320a6.58 6.58 0 0 1-6.57 6.56H28a6.56 6.56 0 0 1-6.59-6.56V28A6.55 6.55 0 0 1 28 21.41h8.1A6.56 6.56 0 0 1 42.63 28ZM306.82 28a6.56 6.56 0 0 1 6.56-6.55h8.11A6.56 6.56 0 0 1 328 28v64.4a111.16 111.16 0 0 0-21.22 6.54ZM64 79.34h221.4v31.07H64Zm0 52.76h198.86A111.85 111.85 0 0 0 245 163.18H64Zm0 52.77h175.3a111 111 0 0 0-1.43 18.92 109 109 0 0 0 .75 12.15H64Zm0 83.85v-31.09h179.31A111.45 111.45 0 0 0 259 268.72Zm295.4 81c-.06-.07-.15-.11-.21-.18l-.63-.48-.47-.32-.62-.39-.55-.31a4.53 4.53 0 0 0-.59-.28 4.46 4.46 0 0 0-.63-.28c-.17-.08-.35-.13-.53-.2l-.71-.24-.46-.04a6.34 6.34 0 0 0-.78-.18c-.16 0-.32 0-.49-.08l-.77-.11h-1.83c-.25 0-.47 0-.7.06a4 4 0 0 0-.62.08 3.57 3.57 0 0 0-.64.11l-.63.13-.63.17-.6.19-.65.24-.53.24-.67.33-.49.26-.68.43-.42.3c-.22.16-.44.33-.65.51l-.22.16-42.89 36.71 1.33-41.71 1.28-40.19c1.69.82 3.39 1.58 5.12 2.31a110.54 110.54 0 0 0 21.16 6.49 111.79 111.79 0 0 0 21.4 2.26h2.14a112.27 112.27 0 0 0 48.16-11.11l2.62 81.87Zm52.6-86.47a85.41 85.41 0 0 1-60.61 25.67h-1.94a85.49 85.49 0 0 1-42.62-12 86.7 86.7 0 0 1-16.46-12.72c-1.73-1.7-3.39-3.47-4.94-5.31a85.12 85.12 0 0 1-19.75-42.95 87.45 87.45 0 0 1-1-12.37 86 86 0 0 1 1.89-18.7 85.48 85.48 0 0 1 18.84-38c1.27-1.48 2.6-2.94 4-4.35a87 87 0 0 1 17.41-13.67 84.85 84.85 0 0 1 21.22-9 86.07 86.07 0 0 1 21.4-3h1.28A86 86 0 0 1 412 263.25Z"/></svg>