<svg data-name="Слой 1" xmlns="http://www.w3.org/2000/svg" viewBox="0 0 485.44 482.08"><path data-name="icon Clients" d="M220 330.36c62.76 0 113.78-62.1 113.78-138.42S282.72 53.51 220 53.51c-31 0-60 14.85-81.58 41.79-20.77 26-32.21 60.29-32.19 96.64-.04 76.33 50.99 138.42 113.77 138.42Zm0-246.51c46 0 83.44 48.48 83.44 108.09S266 300 220 300s-83.43-48.48-83.46-108.09S173.93 83.85 220 83.85Zm95.56 231.34a15.17 15.17 0 0 0 0 30.34 94.19 94.19 0 0 1 94.07 94.09 12.15 12.15 0 0 1-12.15 12.1h-355a12.11 12.11 0 0 1-12.12-12.1 94.17 94.17 0 0 1 94-94.09 15.17 15.17 0 1 0 0-30.34C55.8 315.19 0 371 0 439.62a42.5 42.5 0 0 0 42.46 42.44h355a42.52 42.52 0 0 0 42.49-42.44 124.57 124.57 0 0 0-124.43-124.43ZM231.05 36.66A66.74 66.74 0 0 1 265.47 27c46 0 83.44 48.49 83.44 108.07a137.24 137.24 0 0 1-3.53 31.21 15.15 15.15 0 0 0 11.27 18.22 14.58 14.58 0 0 0 3.48.4 15.19 15.19 0 0 0 14.76-11.7 168.76 168.76 0 0 0 4.34-38.14c0-76.32-51-138.42-113.78-138.42a98 98 0 0 0-49.85 13.91 15.17 15.17 0 0 0 15.43 26.12Zm133 217.86a15.17 15.17 0 1 0 0 30.34c51.86 0 91 43.22 91 95.07a11.7 11.7 0 0 1-1 4.95 15.17 15.17 0 0 0 27.73 12.33 42.48 42.48 0 0 0 3.65-17.31c0-68.54-52.77-125.38-121.36-125.38Z" style="fill-rule:evenodd"/></svg>