<svg data-name="Слой 1" xmlns="http://www.w3.org/2000/svg" viewBox="0 0 650.05 425.2"><path d="M643.84 239.14c0-5.31 6.11 5.58-93-150.79C543.41 76.8 550 80 431.35 80a.07.07 0 0 1-.07-.07V13.29A13.19 13.19 0 0 0 417.86 0H19.49A13.36 13.36 0 0 0 6.14 13.36v345.27a12.81 12.81 0 0 0 .41 3.44A13.33 13.33 0 0 0 19.42 372h67.7a.07.07 0 0 1 .07.06 66.43 66.43 0 0 0 130.18 0 .06.06 0 0 1 .06-.06h241.69a.07.07 0 0 1 .07.06 66.43 66.43 0 0 0 130.17 0 .07.07 0 0 1 .07-.06h41a13.22 13.22 0 0 0 13.45-13.29Zm-37.6-13.29H489.57a5.14 5.14 0 0 1-5.15-5.15v-56.12a5.15 5.15 0 0 1 5.15-5.16h74.52a.07.07 0 0 1 .06 0l42.15 66.28a.07.07 0 0 1-.06.15ZM32.79 26.58h371.84a.07.07 0 0 1 .07.07v212.42a.07.07 0 0 1-.07.07H32.79a.07.07 0 0 1-.07-.07V26.65a.07.07 0 0 1 .07-.07Zm0 239.13h371.84a.07.07 0 0 1 .07.07v79.57a.07.07 0 0 1-.07.07H217.44a.08.08 0 0 1-.07-.05 66.43 66.43 0 0 0-130.18 0s0 .05-.07.05H32.79a.08.08 0 0 1-.08-.07v-79.57a.07.07 0 0 1 .08-.07Zm119.5 132.86a39.88 39.88 0 1 1 28.18-11.68 39.83 39.83 0 0 1-28.18 11.68Zm372 0a39.88 39.88 0 1 1 28.18-11.68 39.83 39.83 0 0 1-28.2 11.68Zm65.16-53.15s-.07 0-.07-.05a66.42 66.42 0 0 0-130.17 0 .08.08 0 0 1-.07.05h-27.8a.07.07 0 0 1-.07-.07v-239a.07.07 0 0 1 .07-.07h98.87a.09.09 0 0 1 .06 0l16.78 26.43a.07.07 0 0 1-.06.11H471.2a13.36 13.36 0 0 0-13.36 13.36V239a13 13 0 0 0 .41 3.46 13.32 13.32 0 0 0 12.88 10H617.2a.07.07 0 0 1 .07.07v39.72a.08.08 0 0 1-.07.07h-12.69c-7.12 0-13.36 5.36-13.78 12.47A13.27 13.27 0 0 0 604 318.86h13.2a.07.07 0 0 1 .07.07v26.43a.07.07 0 0 1-.07.07Z" style="fill:#010101"/></svg>