<svg data-name="Слой 1" xmlns="http://www.w3.org/2000/svg" viewBox="0 0 550.24 618.14"><path d="M547.19 297a15.29 15.29 0 0 0-.42-18.89L455.69 134a15.32 15.32 0 0 0-13.93-9H108.57a15.24 15.24 0 0 0-10 3.71 15.55 15.55 0 0 0-3.21 3.62L2.43 279.18a15.38 15.38 0 0 0-2.12 5.41c0 .25-.08.5-.11.75a15 15 0 0 0-.2 2.33 15.28 15.28 0 0 0 3.44 9.68l.05.06L265.17 613.5a12.8 12.8 0 0 0 19.72 0L546.34 298q.38-.42.72-.87ZM433.12 155.74l73.81 116.74H387.49l-27.57-116.76Zm69.14 147.41-191 230.59 77.19-230.62ZM221.91 155.68H328.4L356 272.44H194.29Zm134.16 147.43-81 242.07-80.9-242.11ZM238.84 533.57 48.05 303h113.78ZM116.91 155.65h73.49l-27.64 116.74L43 272.36Z"/><rect x="230.06" y="29.79" width="90.25" height="30.67" rx="15.34" transform="rotate(90.02 275.18 45.114)"/><rect x="109.58" y="37.12" width="90.25" height="30.67" rx="15.34" transform="rotate(45.02 154.692 52.44)"/><rect x="350.53" y="37.18" width="90.25" height="30.67" rx="15.34" transform="rotate(135.02 395.654 52.498)"/></svg>