<svg id="Слой_1" data-name="Слой 1" xmlns="http://www.w3.org/2000/svg" viewBox="0 0 463.52 425.2"><defs><style>.cls-1{fill:#010101}</style></defs><path class="cls-1" d="M309.37 220.1a15 15 0 0 0-13-22.5H93.47L134 157.39a15.09 15.09 0 0 0-21.36-21.33l-65.88 65.87a15 15 0 0 0 0 21.13l65.65 65.88a15 15 0 0 0 21.11-21.14l-39.86-40.2h202.72a15 15 0 0 0 12.99-7.5Z"/><path class="cls-1" d="M406.1 425.2a15 15 0 0 0 15-15V15a15.07 15.07 0 0 0-4.4-10.6A14.88 14.88 0 0 0 406.1 0H142.64a15 15 0 0 0-15 15v65.87a15 15 0 0 0 30 0V30H391.1v365.19H157.64v-50.86a15 15 0 1 0-30 0v65.86A14.91 14.91 0 0 0 132 420.8a15.14 15.14 0 0 0 10.61 4.4Z"/></svg>