<svg id="Слой_1" data-name="Слой 1" xmlns="http://www.w3.org/2000/svg" viewBox="0 0 463.52 425.2"><defs><style>.cls-1{fill:#010101}</style></defs><path class="cls-1" d="M419.45 51.62a13.57 13.57 0 0 0-10.78-1.93c-47.83 11.65-90.21 7.84-126-11.31C256 24.05 243 6 242.85 5.78a13.54 13.54 0 0 0-18.8-3.37l-.53.41-.07.05c-.32.25-.62.51-.91.78a1.85 1.85 0 0 0-.14.14c-.27.25-.53.52-.78.8l-.19.22c-.22.26-.42.51-.61.78l-.15.19c-.12.18-13.11 18.27-39.85 32.6-35.75 19.15-78.13 23-126 11.31A13.53 13.53 0 0 0 38.26 60.9c-.33 2.26-7.81 56.22 11.38 128a383.56 383.56 0 0 0 53.94 117.56c30.52 44.69 71 83.81 120.4 116.27l.08.05.28.19.31.17c.39.24.78.46 1.19.66l.62.28c.35.15.7.28 1 .4s.48.16.72.22a10.22 10.22 0 0 0 1.07.23c.23.05.46.1.7.13a14.18 14.18 0 0 0 1.59.12h.34a14.18 14.18 0 0 0 1.6-.12c.23 0 .47-.08.7-.13a8.89 8.89 0 0 0 1.05-.23 6.34 6.34 0 0 0 .74-.23c.35-.11.69-.24 1-.38l.64-.29c.4-.2.79-.42 1.17-.65.11-.07.22-.11.33-.18l.28-.19.06-.05c49.38-32.46 89.89-71.57 120.42-116.27A383.54 383.54 0 0 0 413.8 188.9c19.2-71.79 11.71-125.75 11.39-128a13.59 13.59 0 0 0-5.74-9.28Zm-31.72 130.3c-23.21 86.84-75.67 158.61-156 213.45-79.91-54.58-132.27-126-155.66-212.29-12.36-45.61-13-84-12.17-103.79 60.67 11.07 104.42-3.18 131.1-17.83a162.06 162.06 0 0 0 36.72-27.4 162.29 162.29 0 0 0 36.72 27.4C295.21 76.11 339 90.37 399.62 79.28c.85 19.6.23 57.33-11.89 102.64Z"/><path class="cls-1" d="M209.54 160a14.06 14.06 0 0 0 3.63 13.54l44.11 44.11a13.95 13.95 0 0 0 18.25 1.26l88.25-66.19a13.94 13.94 0 1 0-16.73-22.29l-78.65 58.93-35.4-35.67a14 14 0 0 0-23.46 6.31Z"/></svg>