<svg data-name="Слой 1" xmlns="http://www.w3.org/2000/svg" viewBox="0 0 463.52 425.2"><path d="M311.53 0c-4.1 0-8.19.25-12.25.62-1.5.13-3 .35-4.45.55-2.49.3-4.95.67-7.42 1.12q-2.73.51-5.34 1.1C280 3.86 278 4.41 276 5s-3.85 1-5.73 1.62c-1.71.56-3.37 1.24-5.06 1.87a135.77 135.77 0 0 0-13 5.63c-.82.41-1.7.78-2.51 1.22-2.21 1.18-4.34 2.47-6.5 3.75-1.17.72-2.36 1.39-3.53 2.15-2.08 1.33-4.07 2.76-6.07 4.19-.6.44-1.24.84-1.85 1.28A132.55 132.55 0 0 0 152 0C78.68 0 19 59.59 19 132.87c0 120.26 77.38 229.06 207 291a13.16 13.16 0 0 0 11.49 0c129.59-61.95 207-170.75 207-291C444.48 59.59 384.84 0 311.53 0Zm-79.77 397.15C115.1 339.27 45.63 240.89 45.63 132.87a106.09 106.09 0 0 1 166.21-87.62 132.14 132.14 0 0 0-33.26 87.62 13.3 13.3 0 0 0 26.59 0 105.91 105.91 0 0 1 36-79.49c2-1.83 4.16-3.54 6.32-5.19.49-.34 1-.73 1.46-1.1 2.12-1.53 4.29-3 6.51-4.37.61-.39 1.22-.78 1.84-1.14q3.22-1.9 6.56-3.6l2.34-1.13c2.13-1 4.28-2 6.47-2.83 1-.38 1.95-.73 2.95-1.08 2.07-.75 4.15-1.45 6.25-2.06 1.28-.37 2.53-.68 3.82-1 1.9-.48 3.79-1 5.74-1.35 1.75-.32 3.53-.56 5.29-.82 1.51-.22 3-.47 4.55-.63 3.37-.32 6.8-.52 10.25-.52a106.45 106.45 0 0 1 106.36 106.3c.01 108.03-69.45 206.41-186.12 264.29Zm79.77-344a13.29 13.29 0 0 0-.11 26.58h.11a53.21 53.21 0 0 1 53.18 53.14 13.3 13.3 0 0 0 26.59 0 79.82 79.82 0 0 0-79.77-79.72Z" style="fill-rule:evenodd"/></svg>