<svg id="Слой_1" data-name="Слой 1" xmlns="http://www.w3.org/2000/svg" viewBox="0 0 463.52 425.2"><defs><style>.cls-1{fill:#010101}</style></defs><path class="cls-1" d="M356.91 162.6h-22.67V85.87a85.55 85.55 0 0 0-85.46-85h-34.44a85.52 85.52 0 0 0-85 84.83V162.6h-22.72a40.2 40.2 0 0 0-40.15 40.16V384.2c0 19 17.17 40.16 40.15 40.16h250.29a40.2 40.2 0 0 0 40.15-40.16V202.76c0-18.96-17.17-40.16-40.15-40.16ZM158.65 86.35a56.35 56.35 0 0 1 56.11-56.15h34a56.37 56.37 0 0 1 56.16 56.15v76.25H158.65Zm209 297.85a10.8 10.8 0 0 1-10.74 10.8H106.62c-5.69 0-10.79-7.32-10.79-10.79V202.76A10.8 10.8 0 0 1 106.62 192h250.29c5.68 0 10.78 7.32 10.78 10.79Z"/><path class="cls-1" d="M245.85 243.11a27 27 0 0 0-29.71 45.08v43.94a15.62 15.62 0 0 0 31.16 0v-43.94a26.94 26.94 0 0 0 11.48-22 27 27 0 0 0-12.93-23.08Z"/></svg>