<svg id="Слой_1" data-name="Слой 1" xmlns="http://www.w3.org/2000/svg" viewBox="0 0 463.52 425.2"><defs><style>.cls-1{fill:#010101}</style></defs><path class="cls-1" d="M414 162.4H215V85.79A85.9 85.9 0 0 0 129.16 0H95A86.06 86.06 0 0 0 9.2 85.76a14.74 14.74 0 0 0 14.69 14.79h.05a14.75 14.75 0 0 0 14.74-14.7A56.58 56.58 0 0 1 95 29.48h34.13a56.44 56.44 0 0 1 56.35 56.33v76.59h-22.75a40.37 40.37 0 0 0-40.31 40.32v182.16c0 19 17.24 40.32 40.31 40.32H414a40.36 40.36 0 0 0 40.31-40.32V202.72c.01-19.03-17.23-40.32-40.31-40.32Zm10.83 222.48A10.85 10.85 0 0 1 414 395.72H162.73c-5.7 0-10.83-7.36-10.83-10.84V202.72a10.84 10.84 0 0 1 10.83-10.83H414c5.71 0 10.83 7.35 10.83 10.83Z"/><path class="cls-1" d="M302.52 243.23a27.12 27.12 0 0 0-29.83 45.26v44.11a15.68 15.68 0 0 0 31.28 0v-44.11a27 27 0 0 0 11.52-22.05 27.11 27.11 0 0 0-12.97-23.21Z"/></svg>