<svg id="Слой_1" data-name="Слой 1" xmlns="http://www.w3.org/2000/svg" viewBox="0 0 463.52 425.2"><defs><style>.cls-1{fill:#1d1d1b}</style></defs><rect class="cls-1" x="4.47" y=".06" width="319.1" height="30" rx="14.67" ry="14.67" transform="rotate(180 164.015 15.06)"/><rect class="cls-1" x="4.47" y="131.75" width="276.83" height="30" rx="15" ry="15" transform="rotate(180 142.88 146.75)"/><rect class="cls-1" x="4.47" y="263.45" width="234.03" height="30" rx="15" ry="15" transform="rotate(-180 121.48 278.445)"/><rect class="cls-1" x="4.47" y="395.14" width="170.41" height="30" rx="15" ry="15" transform="rotate(180 89.67 410.14)"/><path class="cls-1" d="M454.67 346.85a15 15 0 0 0-21.21 0l-27.08 27.08V15.06a15 15 0 0 0-30 0v359l-27.21-27.21a15 15 0 0 0-21.21 0 15 15 0 0 0 0 21.21l52.68 52.68a14.92 14.92 0 0 0 10.67 4.39h.1c.48 0 1 0 1.45-.08l.66-.09c.27 0 .53-.07.79-.12s.5-.12.74-.19.46-.1.68-.17.48-.16.72-.25.45-.15.67-.25.43-.19.65-.3.45-.2.68-.32l.6-.36.66-.4c.22-.15.43-.31.64-.48s.36-.25.53-.39c.39-.32.76-.65 1.11-1l52.68-52.68a15 15 0 0 0 0-21.2Z"/></svg>