<svg id="Слой_1" data-name="Слой 1" xmlns="http://www.w3.org/2000/svg" viewBox="0 0 463.52 425.2"><defs><style>.cls-1{fill:#1d1d1b}</style></defs><path class="cls-1" d="M388.49 198h-17.86a64.47 64.47 0 0 0-125.7 0H75a14.37 14.37 0 0 0 0 28.73h169.93a64.48 64.48 0 0 0 125.7 0h17.86a14.37 14.37 0 0 0 0-28.73Zm-80.7 49.38a35 35 0 0 1-31.92-20.65 34.83 34.83 0 0 1 0-28.73 35 35 0 1 1 31.92 49.38ZM388.49 50.14H203.65a64.47 64.47 0 0 0-125.7 0H75a14.36 14.36 0 1 0 0 28.71h3a64.47 64.47 0 0 0 125.7 0h184.79a14.36 14.36 0 1 0 0-28.71ZM140.81 99.51a35.08 35.08 0 0 1-35-35 34.54 34.54 0 0 1 3.1-14.35 35 35 0 0 1 63.82 0 34.79 34.79 0 0 1 0 28.71 35 35 0 0 1-31.92 20.64ZM388.49 346.34H256.8a64.48 64.48 0 0 0-125.7 0H75a14.37 14.37 0 0 0 0 28.73h56.1a64.47 64.47 0 0 0 125.7 0h131.69a14.37 14.37 0 0 0 0-28.73ZM194 395.72a35 35 0 1 1 35-35 34.68 34.68 0 0 1-3.09 14.36A35 35 0 0 1 194 395.72Z"/></svg>