<svg 
 xmlns="http://www.w3.org/2000/svg"
 xmlns:xlink="http://www.w3.org/1999/xlink"
 width="17px" height="16px">
<path fill-rule="evenodd"  fill="rgb(17, 17, 17)"
 d="M8.729,7.967 L15.879,15.117 C16.077,15.315 16.077,15.634 15.879,15.831 C15.682,16.029 15.363,16.029 15.166,15.831 L8.015,8.681 L0.865,15.831 C0.668,16.029 0.347,16.029 0.151,15.831 C-0.047,15.634 -0.047,15.315 0.151,15.117 L7.301,7.967 L0.170,0.836 C-0.027,0.638 -0.027,0.319 0.170,0.122 C0.367,-0.075 0.687,-0.075 0.884,0.122 L8.015,7.253 L15.146,0.122 C15.344,-0.075 15.663,-0.075 15.860,0.122 C16.057,0.319 16.057,0.638 15.860,0.836 L8.729,7.967 Z"/>
</svg>