<svg data-name="Слой 1" xmlns="http://www.w3.org/2000/svg" viewBox="0 0 463.52 425.2"><path d="M231.76 274.68c63.22 0 114.63-61.61 114.63-137.34S295 0 231.76 0c-31.27 0-60.46 14.73-82.19 41.46-20.93 25.76-32.45 59.82-32.44 95.88 0 75.74 51.42 137.34 114.63 137.34Zm0-244.59c46.34 0 84.06 48.11 84.06 107.25s-37.72 107.24-84.06 107.24-84.06-48.09-84.09-107.24 37.72-107.25 84.09-107.25ZM328 259.63a15.06 15.06 0 1 0 0 30.11c52.25 0 94.78 41.87 94.78 93.35a12.17 12.17 0 0 1-12.24 12H52.93a12.13 12.13 0 0 1-12.21-12c0-51.48 42.5-93.35 94.74-93.35a15.06 15.06 0 1 0 0-30.11c-69.1 0-125.31 55.38-125.31 123.46 0 23.22 19.19 42.11 42.78 42.11h357.64c23.6 0 42.8-18.89 42.8-42.11 0-68.09-56.24-123.46-125.37-123.46Z" style="fill-rule:evenodd"/></svg>