<svg data-name="Слой 1" xmlns="http://www.w3.org/2000/svg" viewBox="0 0 463.52 425.2"><path d="M433.42 60.52h-25v26.17a11 11 0 1 1-21.89 0V60.52h-25a11.2 11.2 0 0 1-10.94-11.45 11.21 11.21 0 0 1 10.94-11.45h25V11.46a11 11 0 1 1 21.89 0v26.16h25a11.2 11.2 0 0 1 10.94 11.45 11.2 11.2 0 0 1-10.94 11.45ZM231.76 274.68c60.65 0 110-61.62 110-137.33S292.41 0 231.76 0c-30 0-58 14.73-78.85 41.46-20.08 25.76-31.13 59.82-31.12 95.89 0 75.73 49.32 137.33 110 137.33Zm0-244.59c44.46 0 80.64 48.11 80.64 107.26s-36.18 107.23-80.64 107.23-80.64-48.09-80.67-107.23 36.18-107.26 80.67-107.26Zm92.36 229.55a15.05 15.05 0 0 0 0 30.1c50.12 0 90.92 41.87 90.92 93.35a11.91 11.91 0 0 1-11.74 12H60.2a11.88 11.88 0 0 1-11.72-12c0-51.48 40.78-93.35 90.9-93.35a15.06 15.06 0 0 0 0-30.1c-66.29 0-120.22 55.36-120.22 123.45 0 23.22 18.41 42.11 41 42.11H403.3c22.63 0 41.06-18.89 41.06-42.11 0-68.09-53.95-123.45-120.24-123.45Z" style="fill-rule:evenodd"/></svg>