<svg id="Слой_1" data-name="Слой 1" xmlns="http://www.w3.org/2000/svg" viewBox="0 0 463.52 425.2"><defs><style>.cls-1{fill:#010101}</style></defs><path class="cls-1" d="M373.74 243.69a15 15 0 0 0 15-15V53.85A53.91 53.91 0 0 0 334.92 0H96.24A53.9 53.9 0 0 0 42.4 53.85v317.5a53.91 53.91 0 0 0 53.83 53.85h153.28a15 15 0 0 0 0-30.05H96.24a23.83 23.83 0 0 1-23.8-23.81V53.84A23.83 23.83 0 0 1 96.24 30h238.68a23.83 23.83 0 0 1 23.81 23.8v174.86a15 15 0 0 0 15.01 15.03Z"/><path class="cls-1" d="M277.27 101.13H153.8a15 15 0 0 0 0 30.05h123.47a15 15 0 0 0 0-30.05ZM277.31 190.34H153.84a15 15 0 0 0 0 30.05h123.47a15 15 0 0 0 0-30.06ZM210.68 279.63H153.8a15 15 0 1 0 0 30h56.88a15 15 0 0 0 0-30ZM366.82 391.54l2.88-1.54.17.18 25.72 25.71a15 15 0 0 0 21.15-21.26L391 368.87l1.64-2.9a63.83 63.83 0 0 0 8.36-31.9 65.21 65.21 0 1 0-65.32 65.2h.32a64.74 64.74 0 0 0 30.82-7.73Zm-66-57.38A35.16 35.16 0 1 1 336 369.32a35.34 35.34 0 0 1-35.17-35.16Z"/></svg>