<svg data-name="Слой 1" xmlns="http://www.w3.org/2000/svg" viewBox="0 0 542.18 638.44"><path d="M17.59 484A17.61 17.61 0 0 0 0 501.57v119.28a17.61 17.61 0 0 0 17.59 17.59h507a17.61 17.61 0 0 0 17.59-17.59V501.57A17.61 17.61 0 0 0 524.59 484h-507ZM513 513.18v96.06h-26.4v-40.15a10.9 10.9 0 1 0-21.79 0v40.15h-36.48v-20a10.9 10.9 0 1 0-21.8 0v20h-36.47v-40.15a10.9 10.9 0 1 0-21.8 0v40.15h-36.47v-20a10.9 10.9 0 0 0-21.8 0v20h-36.47v-40.15a10.9 10.9 0 0 0-21.8 0v40.15h-36.47v-20a10.9 10.9 0 0 0-21.8 0v20H137v-40.15a10.9 10.9 0 0 0-21.8 0v40.15H78.7v-20a10.9 10.9 0 1 0-21.79 0v20h-27.7v-96.06H513ZM423.35 8.23l-265 265-46.65 146.44a8.61 8.61 0 0 0 10.81 10.81l146.42-46.63 265-265A28.18 28.18 0 0 0 534 79L463.2 8.2a28.18 28.18 0 0 0-39.85.03Zm-29 73.08 66.54 66.54-208.63 208.61-49.54 15.78-32.78-32.78 15.7-49.31.07-.23Zm48.92-48.92 66.54 66.54-28.28 28.28L415 60.66Z"/><rect x="314.73" y="120.62" width="25.31" height="233.32" rx="11.54" transform="rotate(-135 327.386 237.28)"/></svg>