<svg data-name="Слой 1" xmlns="http://www.w3.org/2000/svg" viewBox="0 0 463.52 425.2"><path d="M123.58 425.2a45.81 45.81 0 0 1-45-53.45L93.67 283a15.89 15.89 0 0 0-4.59-14.06l-64.57-62.82a45.72 45.72 0 0 1 25.25-78l89.1-13.06a15.9 15.9 0 0 0 12-8.71l39.76-80.8A45.44 45.44 0 0 1 231.55 0h.06a45.41 45.41 0 0 1 41 25.44l39.95 80.7a15.93 15.93 0 0 0 12 8.69l89.14 12.84a45.73 45.73 0 0 1 25.44 78l-64.42 62.93a15.93 15.93 0 0 0-4.55 14.09l15.33 88.74a45.72 45.72 0 0 1-66.28 48.28l-79.76-41.82a15.93 15.93 0 0 0-14.8 0l-79.66 42a45.75 45.75 0 0 1-21.38 5.33Zm108-395.37a15.6 15.6 0 0 0-14.25 8.89l-39.76 80.8a45.74 45.74 0 0 1-34.4 25l-89.1 13.05a15.89 15.89 0 0 0-8.78 27.13l64.56 62.79A45.7 45.7 0 0 1 123.06 288l-15.12 88.77A15.9 15.9 0 0 0 131 393.5l79.66-42a45.67 45.67 0 0 1 42.55-.06L333 393.25a15.9 15.9 0 0 0 23.06-16.79l-15.34-88.73a45.77 45.77 0 0 1 13.11-40.49l64.41-62.94a15.9 15.9 0 0 0-8.85-27.11l-89.13-12.85a45.72 45.72 0 0 1-34.46-25l-40-80.71a15.58 15.58 0 0 0-14.24-8.83Z" style="fill:#010101"/></svg>