<svg data-name="Слой 1" xmlns="http://www.w3.org/2000/svg" viewBox="0 0 498.45 496.35"><path d="M458.56 0H447a39.93 39.93 0 0 0-39.89 39.89v42.35H91.32V39.88A39.92 39.92 0 0 0 51.43 0H39.89A39.93 39.93 0 0 0 0 39.88v416.61a39.91 39.91 0 0 0 39.89 39.85h11.54a39.9 39.9 0 0 0 39.89-39.85v-42.25h315.81v42.24A39.91 39.91 0 0 0 447 496.35h11.54a39.93 39.93 0 0 0 39.89-39.87V39.89A39.94 39.94 0 0 0 458.56 0ZM60.8 456.49a9.38 9.38 0 0 1-9.37 9.35H39.89a9.37 9.37 0 0 1-9.35-9.35V39.88a9.35 9.35 0 0 1 9.35-9.35h11.54a9.37 9.37 0 0 1 9.37 9.35Zm346.33-73.18H91.32V339h315.81Zm0-75.28H91.32v-44.32h315.81Zm0-75.26H91.32v-44.34h315.81Zm0-75.27H91.32v-44.32h315.81Zm60.78 299a9.36 9.36 0 0 1-9.35 9.35H447a9.38 9.38 0 0 1-9.37-9.35V39.89a9.36 9.36 0 0 1 9.37-9.35h11.54a9.34 9.34 0 0 1 9.35 9.35Z" /></svg>